HIERARCHY
ROOT hip
{
	OFFSET 0.000000 0.000000 0.000000 
	CHANNELS 6 Xposition Yposition Zposition Xrotation Zrotation Yrotation
	JOINT abdomen
	{
		OFFSET 0.000000 3.402643 0.000000 
		CHANNELS 3 Xrotation Zrotation Yrotation
		JOINT chest
		{
			OFFSET 0.000000 8.438565 -0.680529 
			CHANNELS 3 Xrotation Zrotation Yrotation
			JOINT neck
			{
				OFFSET 0.000000 10.207942 -0.272212 
				CHANNELS 3 Xrotation Zrotation Yrotation
				JOINT head
				{
					OFFSET 0.000000 3.130431 0.000000 
					CHANNELS 3 Xrotation Zrotation Yrotation
					End Site
					{
						OFFSET 0.000000 3.130435 0.000000 
					}
				}
			}
			JOINT lCollar
			{
				OFFSET 3.470700 6.669187 -0.816635 
				CHANNELS 3 Yrotation Zrotation Xrotation
				JOINT lShldr
				{
					OFFSET 3.198488 0.000000 0.000000 
					CHANNELS 3 Zrotation Yrotation Xrotation
					JOINT lForeArm
					{
						OFFSET 10.139888 0.000000 0.000000 
						CHANNELS 3 Yrotation Zrotation Xrotation
						JOINT lHand
						{
							OFFSET 8.370511 0.000000 0.000000 
							CHANNELS 3 Zrotation Yrotation Xrotation
							End Site
							{
								OFFSET 4.083176 0.000000 0.000000 
							}
						}
					}
				}
			}
			JOINT rCollar
			{
				OFFSET -3.470700 6.669187 -0.816635 
				CHANNELS 3 Yrotation Zrotation Xrotation
				JOINT rShldr
				{
					OFFSET -3.198488 0.000000 0.000000 
					CHANNELS 3 Zrotation Yrotation Xrotation
					JOINT rForeArm
					{
						OFFSET -10.139888 0.000000 0.000000 
						CHANNELS 3 Yrotation Zrotation Xrotation
						JOINT rHand
						{
							OFFSET -8.370511 0.000000 0.000000 
							CHANNELS 3 Zrotation Yrotation Xrotation
							End Site
							{
								OFFSET -4.083176 0.000000 0.000000 
							}
						}
					}
				}
			}
		}
	}
	JOINT lThigh
	{
		OFFSET 5.308129 -1.633274 1.361059 
		CHANNELS 3 Xrotation Zrotation Yrotation
		JOINT lShin
		{
			OFFSET -2.041588 -20.007561 0.000000 
			CHANNELS 3 Xrotation Zrotation Yrotation
			JOINT lFoot
			{
				OFFSET 0.000000 -19.190928 -1.224953 
				CHANNELS 3 Xrotation Yrotation Zrotation
				End Site
				{
					OFFSET 0.000000 -2.449906 4.627600 
				}
			}
		}
	}
	JOINT rThigh
	{
		OFFSET -5.308129 -1.633274 1.361059 
		CHANNELS 3 Xrotation Zrotation Yrotation
		JOINT rShin
		{
			OFFSET 2.041588 -20.007561 0.000000 
			CHANNELS 3 Xrotation Zrotation Yrotation
			JOINT rFoot
			{
				OFFSET 0.000000 -19.190928 -1.224953 
				CHANNELS 3 Xrotation Yrotation Zrotation
				End Site
				{
					OFFSET 0.000000 -2.449906 4.627600 
				}
			}
		}
	}
}
MOTION
Frames: 11
Frame Time: 0.016667
-16.021904 62.008041 49.218472 141.152756 15.269110 38.867393 -16.887365 -0.990527 0.593613 14.368163 -7.031212 0.683593 -29.187515 -11.160880 0.525042 -1.162122 -0.263618 -2.934105 1.993405 -2.003458 -0.008156 -101.329735 -117.633438 40.125095 -18.219917 0.027088 -1.019201 -0.092093 0.107278 2.968763 -2.003062 1.991579 -0.506922 -52.325424 41.663391 -111.397583 23.758854 -0.142031 -0.492313 0.054181 -0.042554 29.365240 -35.670441 -16.376059 4.104187 60.769711 35.319164 19.022818 5.211137 -2.145101 -16.551365 -95.520439 -18.067379 20.438171 71.447983 -1.666659 -3.881186 -19.961729 -2.588231 -0.633701 
-16.094929 59.946983 49.057915 137.755539 13.032720 38.056789 -16.073576 -1.904981 0.001597 13.792974 -8.387465 0.516659 -28.932976 -10.160040 -0.789410 -1.015628 0.126933 -3.400688 1.993405 -2.003458 -0.008156 -95.834381 -122.388435 37.001942 -17.282574 0.047708 -1.007905 -0.097985 0.116807 4.619151 -2.003062 1.991579 -0.506922 -54.671101 38.030903 -113.214462 22.508924 -0.158323 -0.484078 0.046530 -0.032394 33.974609 -28.526485 -15.865596 4.544667 64.439735 36.190594 20.990986 3.283089 -1.857274 -17.189592 -96.808777 -18.751160 20.909285 61.745277 -2.115272 -3.637380 -21.293276 -5.468207 -1.891194 
-16.189459 57.740635 48.808834 134.896423 11.123849 36.347305 -15.526616 -2.785304 -0.193761 13.134360 -9.029182 0.490608 -28.554022 -9.633738 -1.800036 -0.878919 0.312463 -3.754794 1.993405 -2.003458 -0.008156 -91.826447 -126.008179 36.229061 -17.057999 0.043757 -1.008084 -0.088697 0.097244 5.263681 -2.003062 1.991579 -0.506922 -56.026722 35.433529 -114.983696 21.327311 -0.170052 -0.489233 0.050644 -0.023334 37.207031 -21.614040 -15.338032 7.077512 67.601479 36.815449 22.745260 2.019522 -1.363798 -17.686218 -97.571938 -18.506851 21.824732 51.064987 -2.501946 -3.245478 -22.086262 -9.483060 -3.885256 
-16.342884 55.411747 48.449841 132.470505 9.654183 34.100826 -15.107569 -3.535867 -0.120370 12.492945 -8.794088 0.519775 -28.111946 -9.473467 -2.534713 -0.712906 0.371065 -4.037819 1.993405 -2.003458 -0.008156 -88.638115 -128.729675 35.575893 -17.585258 0.043723 -1.010589 -0.098041 0.107011 5.009775 -2.003062 1.991579 -0.506922 -57.071339 33.569984 -117.148643 20.458208 -0.171761 -0.488343 0.050284 -0.023056 38.095703 -15.070654 -15.678896 11.170131 70.141899 37.274757 24.171064 2.781803 -1.105100 -18.091444 -98.039223 -17.560369 24.424320 40.348026 -2.620111 -2.815672 -22.359903 -14.964263 -6.787313 
-16.548328 52.989319 48.021824 130.241043 8.137268 31.980045 -14.824275 -4.116587 -0.034604 11.772024 -8.185961 0.545668 -27.542177 -9.662003 -3.074527 -0.449225 0.292960 -4.308937 1.993405 -2.003458 -0.008156 -85.841179 -130.903351 34.613293 -18.229738 0.024207 -1.009920 -0.079462 0.097292 4.951181 -2.003062 1.991579 -0.506922 -57.773476 32.055817 -118.192123 20.009014 -0.177103 -0.486333 0.050859 -0.023496 36.679691 -9.183951 -16.869976 15.581550 71.340073 37.393070 24.792747 5.557893 -1.278901 -18.091908 -98.179306 -16.270832 30.384260 30.986687 -2.507340 -2.373203 -23.695736 -22.881948 -11.417892 
-16.723885 50.484245 47.645203 128.132645 5.808763 30.505466 -14.733088 -4.458445 -0.294293 10.913179 -7.816843 0.450338 -26.816824 -10.118983 -3.254822 -0.087891 0.068359 -4.453230 1.993405 -2.003458 -0.008156 -83.820992 -132.526077 33.641685 -18.532423 0.020283 -1.012882 -0.076449 0.096984 6.728539 -2.003062 1.991579 -0.506922 -58.594978 31.261881 -119.181572 19.442635 -0.181495 -0.484810 0.046134 -0.032124 34.677742 -4.724835 -18.453814 19.344389 71.608246 37.372784 24.890095 8.618612 -3.015435 -16.853346 -98.501694 -16.154066 36.457745 23.943102 -2.213315 -2.097839 -26.550909 -28.665638 -16.471958 
-16.773153 47.912148 47.408623 125.861755 2.158772 29.663748 -15.303933 -4.578523 -1.082732 9.963134 -7.243806 0.077823 -26.315153 -10.188921 -3.009187 0.156250 0.039062 -4.277231 1.993405 -2.003458 -0.008156 -84.217606 -133.606384 38.140629 -17.926998 0.031168 -1.016320 -0.085504 0.096897 7.148460 -2.003062 1.991579 -0.506922 -58.540752 32.465267 -120.406509 20.887882 -0.175418 -0.487041 0.052115 -0.041324 32.187504 -1.942544 -19.695395 22.404318 70.976883 37.244602 24.506481 9.782028 -5.221470 -14.574865 -99.202278 -16.780872 41.476810 20.267469 -1.919822 -1.967306 -29.077696 -31.690704 -20.171482 
-16.672619 45.344551 47.268448 123.297020 -2.895336 28.821339 -15.961168 -3.079881 -2.430380 8.792554 -5.617231 -0.594565 -26.564703 -9.507455 -2.388583 -0.097660 0.527343 -3.633711 1.993405 -2.003458 -0.008156 -88.213211 -133.153412 47.610657 -17.214224 0.046506 -1.007961 -0.076333 0.096970 6.796899 -2.003062 1.991579 -0.506922 -56.732548 36.533794 -117.713936 27.352493 -0.111594 -0.492017 0.051727 -0.052310 26.777349 -1.004952 -20.242395 25.423201 69.251755 36.913063 23.503588 8.748088 -6.027288 -12.579494 -99.798767 -17.181217 45.079960 19.680662 -1.812770 -2.002713 -30.115196 -32.631927 -21.559822 
-16.450294 42.936501 47.099274 120.524384 -9.332541 27.838448 -16.445877 -0.468305 -3.826613 8.667441 -3.369370 -1.363187 -26.047949 -8.878274 -1.711948 -0.195353 1.162103 -2.835993 1.993405 -2.003458 -0.008156 84.347214 -49.443825 -126.176460 -20.153316 -0.000276 -1.019555 -0.073199 0.096545 8.652365 -2.003062 1.991579 -0.506922 -52.258698 40.888844 -108.722725 37.908905 -0.025156 -0.525018 0.072506 -0.073966 18.779306 -1.820511 -19.925200 28.424603 66.860832 36.415310 22.145391 6.570655 -5.509135 -11.499365 -100.044510 -16.946068 47.316132 22.134907 -1.843010 -2.145877 -32.187401 -31.116156 -22.012779 
-16.206217 40.904335 46.829308 117.373100 -16.524242 27.753372 -16.400904 1.311576 -5.063634 9.577172 -3.360811 -1.797357 -23.294968 -8.604731 -1.490490 0.097684 1.357420 -2.321674 1.993405 -2.003458 -0.008156 76.936150 -53.327202 -123.600418 -27.691849 -0.127641 -1.059585 -0.073263 0.086665 9.580097 -2.003062 1.991579 -0.506922 -45.190453 42.696510 -97.047546 47.498913 0.051495 -0.562112 0.086788 -0.105422 11.074235 -3.737351 -19.137329 30.019279 63.784718 35.704975 20.439278 4.624102 -5.181272 -10.387250 -99.439438 -16.155186 48.179592 28.202528 -1.961740 -2.479831 -35.172089 -28.344183 -21.868853 
-16.188961 39.352947 46.418171 113.580414 -22.790718 28.354389 -16.128452 1.463504 -5.755046 10.270533 -5.391253 -1.844771 -21.034782 -8.184222 -1.565092 0.820595 1.503752 -2.077824 1.993405 -2.003458 -0.008156 69.719025 -55.703476 -113.321953 -37.018456 -0.276357 -1.125678 -0.088714 0.097246 5.253915 -2.003062 1.991579 -0.506922 -35.688522 42.958992 -86.039688 55.048180 0.110781 -0.601701 0.078601 -0.107019 4.960931 -5.984751 -19.383518 30.307806 59.744183 34.687386 18.268835 183.291275 -174.167709 171.168579 -100.319923 -16.788054 36.235046 36.077045 -1.835231 -2.950917 -34.093555 -16.608643 -12.915504 
